<svg fill="none" height="48" viewBox="0 0 48 48" width="48" xmlns="http://www.w3.org/2000/svg">
    <path clip-rule="evenodd" d="M25.9393 7.93934C26.5251 7.35355 27.4749 7.35355 28.0607 7.93934L43.0607 22.9393C43.342 23.2206 43.5 23.6022 43.5 24C43.5 24.3978 43.342 24.7794 43.0607 25.0607L28.0607 40.0607C27.4749 40.6464 26.5251 40.6464 25.9393 40.0607C25.3536 39.4749 25.3536 38.5251 25.9393 37.9393L38.3787 25.5H6C5.17157 25.5 4.5 24.8284 4.5 24C4.5 23.1716 5.17157 22.5 6 22.5H38.3787L25.9393 10.0607C25.3536 9.47487 25.3536 8.52513 25.9393 7.93934Z"
        fill="#176E2B"
        fill-rule="evenodd" />
</svg>
