<svg fill="none" height="200" viewBox="0 0 201 200" width="201" xmlns="http://www.w3.org/2000/svg">
    <path
        d="M76.6928 142.348C84.499 143.274 92.4431 143.75 100.498 143.75C103.255 143.75 105.999 143.694 108.728 143.584M76.6928 142.348C60.9036 140.475 45.6784 136.763 31.2373 131.432C42.3783 119.066 49.4624 102.972 50.3936 85.2489M76.6928 142.348C75.9183 144.76 75.5 147.331 75.5 150C75.5 163.807 86.6929 175 100.5 175C111.22 175 120.364 168.252 123.917 158.773M140.291 139.791L175.5 175M140.291 139.791C150.412 137.748 160.255 134.941 169.759 131.432C157.786 118.142 150.498 100.547 150.498 81.25V75.4099L150.5 75C150.5 47.3858 128.114 25 100.5 25C80.2225 25 62.7643 37.0708 54.9188 54.4188M140.291 139.791L54.9188 54.4188M25.5 25L54.9188 54.4188"
        stroke="#AFBDAD" stroke-linecap="round" stroke-linejoin="round" stroke-width="8" />
</svg>
