<svg fill="none" height="24" viewBox="0 0 25 24" width="25" xmlns="http://www.w3.org/2000/svg">
    <path
        d="M8.5 22V19C8.5 17.1144 8.5 16.1716 9.08579 15.5858C9.67157 15 10.6144 15 12.5 15C14.3856 15 15.3284 15 15.9142 15.5858C16.5 16.1716 16.5 17.1144 16.5 19V22"
        stroke="#212529" stroke-linejoin="round" stroke-width="1.5" />
    <path d="M10.5 7H14.5" stroke="#212529" stroke-linecap="round" stroke-linejoin="round"
        stroke-width="1.5" />
    <path
        d="M3.5 11.8584C3.5 7.28199 3.5 4.99376 4.88674 3.54394C4.93797 3.49038 4.99038 3.43797 5.04394 3.38674C6.49376 2 8.78199 2 13.3584 2C14.443 2 14.9655 2.00376 15.4628 2.18936C15.9417 2.3681 16.3429 2.70239 17.1452 3.37099L19.3411 5.20092C20.4027 6.08561 20.9335 6.52795 21.2168 7.13266C21.5 7.73737 21.5 8.42833 21.5 9.81025V13C21.5 16.7497 21.5 18.6246 20.5451 19.9389C20.2367 20.3634 19.8634 20.7367 19.4389 21.0451C18.1246 22 16.2497 22 12.5 22C8.75027 22 6.8754 22 5.56107 21.0451C5.1366 20.7367 4.76331 20.3634 4.45491 19.9389C3.5 18.6246 3.5 16.7497 3.5 13V11.8584Z"
        stroke="#212529" stroke-width="1.5" />
</svg>
