<svg fill="none" height="48" viewBox="0 0 48 48" width="48" xmlns="http://www.w3.org/2000/svg">
    <path
        d="M4.5 31.5L14.818 21.182C16.5754 19.4246 19.4246 19.4246 21.182 21.182L31.5 31.5M28.5 28.5L31.318 25.682C33.0754 23.9246 35.9246 23.9246 37.682 25.682L43.5 31.5M7.5 39H40.5C42.1569 39 43.5 37.6569 43.5 36V12C43.5 10.3431 42.1569 9 40.5 9H7.5C5.84315 9 4.5 10.3431 4.5 12V36C4.5 37.6569 5.84315 39 7.5 39ZM28.5 16.5H28.515V16.515H28.5V16.5ZM29.25 16.5C29.25 16.9142 28.9142 17.25 28.5 17.25C28.0858 17.25 27.75 16.9142 27.75 16.5C27.75 16.0858 28.0858 15.75 28.5 15.75C28.9142 15.75 29.25 16.0858 29.25 16.5Z"
        stroke="#282828" stroke-linecap="round" stroke-linejoin="round" stroke-width="1.5" />
</svg>
