<svg fill="none" height="24" viewBox="0 0 24 24" width="24" xmlns="http://www.w3.org/2000/svg">
    <path
        d="M8 4.5C8 3.83696 8.26339 3.20107 8.73223 2.73223C9.20107 2.26339 9.83696 2 10.5 2C11.163 2 11.7989 2.26339 12.2678 2.73223C12.7366 3.20107 13 3.83696 13 4.5V6H16.379C16.9754 6.00026 17.5473 6.23729 17.969 6.659L20.78 9.469C20.8497 9.53865 20.905 9.62135 20.9427 9.71238C20.9804 9.8034 20.9998 9.90097 20.9998 9.9995C20.9998 10.098 20.9804 10.1956 20.9427 10.2866C20.905 10.3776 20.8497 10.4603 20.78 10.53L17.97 13.341C17.7611 13.5499 17.513 13.7157 17.24 13.8287C16.9671 13.9418 16.6745 14 16.379 14H13V20.75C13 21.44 12.44 22 11.75 22H9.25C8.56 22 8 21.44 8 20.75V14H5.25C4.65326 14 4.08097 13.7629 3.65901 13.341C3.23705 12.919 3 12.3467 3 11.75V8.25C3 7.65326 3.23705 7.08097 3.65901 6.65901C4.08097 6.23705 4.65326 6 5.25 6H8V4.5ZM9.5 6H11.5V4.5C11.5 4.23478 11.3946 3.98043 11.2071 3.79289C11.0196 3.60536 10.7652 3.5 10.5 3.5C10.2348 3.5 9.98043 3.60536 9.79289 3.79289C9.60536 3.98043 9.5 4.23478 9.5 4.5V6ZM9.5 14V20.5H11.5V14H9.5ZM4.5 8.25V11.75C4.5 12.164 4.836 12.5 5.25 12.5H16.379C16.5778 12.4998 16.7685 12.4207 16.909 12.28L19.189 10L16.909 7.72C16.7685 7.57931 16.5778 7.50017 16.379 7.5H5.25C5.05109 7.5 4.86032 7.57902 4.71967 7.71967C4.57902 7.86032 4.5 8.05109 4.5 8.25Z"
        fill="#282828" />
</svg>
